<svg width="393" height="852" viewBox="0 0 393 852" fill="none" xmlns="http://www.w3.org/2000/svg">
<rect width="393" height="852" fill="white"/>
<path d="M160.237 378.002C161.107 379.165 162.468 379.594 163.719 379.152C165.069 378.675 164.812 377.484 164.825 376.405C164.828 376.108 164.825 375.811 164.82 375.513C164.738 370.528 160.149 367.41 155.893 369.465C152.459 371.123 151.88 374.926 152.338 378.067C152.427 378.681 152.835 378.776 153.31 378.705C153.884 378.618 154.299 378.224 154.735 377.849C156.442 376.383 158.553 376.392 160.237 378.002Z" fill="#48CEB6"/>
<path d="M160.132 366.762C160.427 366.554 160.751 366.379 161.013 366.13C162.139 365.058 162.45 363.197 161.772 361.723C161.138 360.343 159.544 359.494 158.11 359.773C156.544 360.078 155.475 361.284 155.312 362.93C155.031 365.762 157.099 367.504 160.132 366.762Z" fill="#48CEB6"/>
<path d="M170.907 367.716C171.22 367.147 171.296 366.519 171.284 365.875C171.25 364.121 169.933 362.778 168.281 362.803C166.661 362.827 165.426 364.118 165.376 365.84C165.33 367.417 165.949 368.485 167.235 369.046C168.523 369.607 169.611 369.25 170.907 367.716Z" fill="#48CEB6"/>
<path d="M150.976 372.258C151.017 371.539 150.473 371.439 150.038 371.336C149.067 371.106 148.079 371.075 147.112 371.386C144.613 372.191 143.498 374.237 143.572 377.663C143.595 378.745 143.97 379.143 144.944 378.92C146.297 378.611 147.634 378.359 149.041 378.701C149.922 378.915 150.932 379.865 150.88 378.769C150.8 377.111 150.409 374.032 150.976 372.258Z" fill="#48CEB6"/>
<path d="M148.879 362.966C146.863 363.193 145.577 365.015 146.099 366.904C146.592 368.687 147.891 369.566 149.623 369.286C151.11 369.045 152.045 367.779 152.016 366.044C151.985 364.196 151.013 363.177 148.879 362.966Z" fill="#48CEB6"/>
<path d="M167.207 371.176C166.644 371.297 165.985 371.465 166.176 372.249C166.65 374.194 166.821 376.159 166.796 378.158C166.787 378.836 167.177 379.033 167.746 378.909C168.264 378.797 168.717 378.581 168.998 378.053C169.553 377.009 170.426 376.817 171.445 377.025C172.048 377.149 173.003 378.436 173.605 378.288C174.054 375.821 172.994 372.724 171.294 371.738C170.079 371.033 168.761 370.846 167.207 371.176Z" fill="#48CEB6"/>
<path fill-rule="evenodd" clip-rule="evenodd" d="M140.13 369.594C140.128 368.788 140.142 368.109 140.122 367.43C140.064 365.554 139.326 364.585 137.587 364.355C135.254 364.047 133.103 364.612 131.3 366.313C129.614 367.903 129.089 370.338 129.898 372.584C130.835 375.186 133.749 375.753 135.406 373.615C135.867 373.021 136.309 372.991 136.843 373.32C137.602 373.789 137.962 374.498 137.786 375.453C137.453 377.268 135.627 379.011 133.677 379.387C128.884 380.313 125.02 377.314 123.818 371.659C122.996 367.795 123.209 363.869 123.421 359.961L123.426 359.872C123.554 357.503 123.856 355.149 124.593 352.886C126.895 345.82 131.572 341.725 138.357 340.474C140.104 340.152 141.536 339.023 143.292 338.814C146.499 338.432 149.541 338.886 152.255 340.822C155.282 342.981 156.158 346.196 155.822 349.925C155.503 353.467 154.062 356.396 151.471 358.955C154.131 357.175 155.852 354.28 156.562 351.571C157.395 348.396 157.017 345.458 155.283 342.615C156.741 341.859 158.193 341.951 159.61 342.041L159.637 342.042C166.766 342.495 172.776 347.611 174.793 354.963C175.305 356.831 175.632 358.746 175.62 360.725C175.587 366.329 175.615 371.932 175.608 377.536C175.606 379.672 174.979 380.339 172.983 380.342C162.831 380.356 152.679 380.366 142.527 380.372C140.777 380.373 140.158 379.733 140.144 377.87C140.123 375.153 140.133 372.436 140.13 369.594ZM163.719 379.152C162.468 379.594 161.107 379.165 160.237 378.002C158.553 376.392 156.442 376.383 154.735 377.849C154.299 378.224 153.884 378.618 153.31 378.705C152.835 378.776 152.427 378.681 152.338 378.067C151.88 374.926 152.459 371.123 155.893 369.465C160.149 367.41 164.738 370.528 164.82 375.513C164.825 375.811 164.828 376.108 164.825 376.405C164.812 377.484 165.069 378.675 163.719 379.152ZM150.038 371.336C150.473 371.439 151.017 371.539 150.976 372.258C150.409 374.032 150.8 377.111 150.88 378.769C150.932 379.865 149.922 378.915 149.041 378.701C147.634 378.359 146.297 378.611 144.944 378.92C143.97 379.143 143.595 378.745 143.572 377.663C143.498 374.237 144.613 372.191 147.112 371.386C148.079 371.075 149.067 371.106 150.038 371.336ZM166.176 372.249C165.985 371.465 166.644 371.297 167.207 371.176C168.761 370.846 170.079 371.033 171.294 371.738C172.994 372.724 174.054 375.821 173.605 378.288C173.003 378.436 172.048 377.149 171.445 377.025C170.426 376.817 169.553 377.009 168.998 378.053C168.717 378.581 168.264 378.797 167.746 378.909C167.177 379.033 166.787 378.836 166.796 378.158C166.821 376.159 166.65 374.194 166.176 372.249ZM161.013 366.13C160.751 366.379 160.427 366.554 160.132 366.762C157.099 367.504 155.031 365.762 155.312 362.93C155.475 361.284 156.544 360.078 158.11 359.773C159.544 359.494 161.138 360.343 161.772 361.723C162.45 363.197 162.139 365.058 161.013 366.13ZM146.099 366.904C145.577 365.015 146.863 363.193 148.879 362.966C151.013 363.177 151.985 364.196 152.016 366.044C152.045 367.779 151.11 369.045 149.623 369.286C147.891 369.566 146.592 368.687 146.099 366.904ZM171.284 365.875C171.296 366.519 171.22 367.147 170.907 367.716C169.611 369.25 168.523 369.607 167.235 369.046C165.949 368.485 165.33 367.417 165.376 365.84C165.426 364.118 166.661 362.827 168.281 362.803C169.933 362.778 171.25 364.121 171.284 365.875ZM133.385 354.102C133.486 354.793 133.254 355.335 132.577 355.56C132.577 355.56 130.723 354.617 131.265 353.714C131.544 353.248 131.933 353.022 132.453 353.117C132.972 353.212 133.307 353.565 133.385 354.102Z" fill="#0E304A"/>
<ellipse cx="132.241" cy="354.323" rx="1.2208" ry="1.26613" fill="white"/>
<path d="M143.658 375.883C143.729 375.306 144.275 374.911 144.845 375.024L149.984 376.044C150.452 376.137 150.789 376.547 150.789 377.025V379.372C150.789 379.924 150.342 380.372 149.789 380.372H147.344H143.38L143.448 377.593L143.658 375.883Z" fill="#48CFB6"/>
<path d="M167.015 375.122C167.015 374.36 167.833 373.878 168.5 374.247L170.071 375.118L172.452 376.323C172.592 376.394 172.748 376.429 172.905 376.435C173.642 376.46 173.368 376.641 173.337 377.451C173.333 377.545 173.321 377.639 173.295 377.729L173.039 378.616C172.974 378.843 173.035 379.087 173.198 379.256C173.602 379.674 173.306 380.372 172.725 380.372H170.772H168.015C167.463 380.372 167.015 379.924 167.015 379.372V375.122Z" fill="#48CFB6"/>
<rect x="152.219" y="376.204" width="12.6143" height="4.16814" fill="#48CFB6"/>
<rect x="148.296" y="372.035" width="2.68675" height="8.33628" fill="#48CFB6"/>
<rect x="166.15" y="372.035" width="2.68675" height="8.33628" fill="#48CFB6"/>
<rect x="172.329" y="376.204" width="1.34337" height="4.16814" fill="#48CFB6"/>
<g filter="url(#filter0_d_1_2)">
<path d="M177.926 381V355.545H184.079V365.762H194.109V355.545H200.249V381H194.109V370.771H184.079V381H177.926ZM209.49 381.323C208.272 381.323 207.191 381.12 206.246 380.714C205.31 380.3 204.568 379.678 204.021 378.85C203.483 378.013 203.213 376.965 203.213 375.705C203.213 374.645 203.4 373.75 203.773 373.021C204.145 372.291 204.659 371.699 205.314 371.243C205.968 370.788 206.722 370.444 207.576 370.212C208.429 369.971 209.341 369.81 210.31 369.727C211.396 369.627 212.27 369.524 212.933 369.416C213.596 369.3 214.076 369.139 214.374 368.931C214.681 368.716 214.834 368.414 214.834 368.024V367.962C214.834 367.324 214.615 366.831 214.176 366.483C213.736 366.135 213.144 365.961 212.398 365.961C211.595 365.961 210.948 366.135 210.459 366.483C209.97 366.831 209.66 367.312 209.527 367.925L203.922 367.726C204.087 366.566 204.514 365.53 205.202 364.619C205.898 363.699 206.851 362.978 208.061 362.456C209.279 361.926 210.741 361.661 212.448 361.661C213.666 361.661 214.789 361.806 215.816 362.096C216.844 362.377 217.739 362.792 218.501 363.338C219.263 363.877 219.852 364.54 220.266 365.327C220.688 366.114 220.9 367.013 220.9 368.024V381H215.182V378.34H215.033C214.693 378.987 214.258 379.533 213.728 379.981C213.206 380.428 212.589 380.764 211.876 380.988C211.172 381.211 210.376 381.323 209.49 381.323ZM211.367 377.346C212.021 377.346 212.61 377.213 213.132 376.948C213.662 376.683 214.084 376.318 214.399 375.854C214.714 375.382 214.872 374.835 214.872 374.214V372.399C214.698 372.49 214.486 372.573 214.238 372.648C213.997 372.722 213.732 372.793 213.442 372.859C213.152 372.925 212.854 372.983 212.547 373.033C212.241 373.083 211.947 373.128 211.665 373.17C211.093 373.261 210.604 373.402 210.198 373.592C209.801 373.783 209.494 374.031 209.279 374.338C209.071 374.636 208.968 374.993 208.968 375.407C208.968 376.037 209.192 376.517 209.639 376.849C210.095 377.18 210.671 377.346 211.367 377.346ZM229.998 381.323C228.78 381.323 227.698 381.12 226.754 380.714C225.817 380.3 225.076 379.678 224.529 378.85C223.99 378.013 223.721 376.965 223.721 375.705C223.721 374.645 223.907 373.75 224.28 373.021C224.653 372.291 225.167 371.699 225.822 371.243C226.476 370.788 227.23 370.444 228.084 370.212C228.937 369.971 229.849 369.81 230.818 369.727C231.903 369.627 232.778 369.524 233.441 369.416C234.103 369.3 234.584 369.139 234.882 368.931C235.189 368.716 235.342 368.414 235.342 368.024V367.962C235.342 367.324 235.123 366.831 234.683 366.483C234.244 366.135 233.652 365.961 232.906 365.961C232.102 365.961 231.456 366.135 230.967 366.483C230.478 366.831 230.168 367.312 230.035 367.925L224.43 367.726C224.595 366.566 225.022 365.53 225.71 364.619C226.406 363.699 227.359 362.978 228.568 362.456C229.786 361.926 231.249 361.661 232.956 361.661C234.174 361.661 235.297 361.806 236.324 362.096C237.352 362.377 238.246 362.792 239.009 363.338C239.771 363.877 240.359 364.54 240.774 365.327C241.196 366.114 241.407 367.013 241.407 368.024V381H235.69V378.34H235.541C235.201 378.987 234.766 379.533 234.236 379.981C233.714 380.428 233.097 380.764 232.384 380.988C231.68 381.211 230.884 381.323 229.998 381.323ZM231.874 377.346C232.529 377.346 233.117 377.213 233.639 376.948C234.17 376.683 234.592 376.318 234.907 375.854C235.222 375.382 235.379 374.835 235.379 374.214V372.399C235.205 372.49 234.994 372.573 234.746 372.648C234.505 372.722 234.24 372.793 233.95 372.859C233.66 372.925 233.362 372.983 233.055 373.033C232.749 373.083 232.454 373.128 232.173 373.17C231.601 373.261 231.112 373.402 230.706 373.592C230.308 373.783 230.002 374.031 229.786 374.338C229.579 374.636 229.476 374.993 229.476 375.407C229.476 376.037 229.699 376.517 230.147 376.849C230.603 377.18 231.178 377.346 231.874 377.346ZM245.173 381V377.532L254.023 366.756V366.632H245.484V361.909H261.269V365.712L253.066 376.153V376.277H261.567V381H245.173ZM265.495 381V361.909H271.573V381H265.495ZM268.54 359.684C267.686 359.684 266.953 359.403 266.34 358.839C265.727 358.267 265.42 357.58 265.42 356.776C265.42 355.98 265.727 355.301 266.34 354.738C266.953 354.166 267.686 353.88 268.54 353.88C269.402 353.88 270.135 354.166 270.74 354.738C271.353 355.301 271.66 355.98 271.66 356.776C271.66 357.58 271.353 358.267 270.74 358.839C270.135 359.403 269.402 359.684 268.54 359.684ZM275.441 381V361.909H281.345V365.389H281.544C281.892 364.13 282.459 363.193 283.247 362.58C284.034 361.959 284.949 361.648 285.993 361.648C286.275 361.648 286.565 361.669 286.863 361.71C287.162 361.743 287.439 361.797 287.696 361.872V367.154C287.406 367.055 287.025 366.976 286.553 366.918C286.089 366.86 285.674 366.831 285.31 366.831C284.589 366.831 283.938 366.993 283.358 367.316C282.787 367.631 282.335 368.074 282.004 368.646C281.68 369.209 281.519 369.872 281.519 370.634V381H275.441Z" fill="#0E304A"/>
</g>
<path d="M126.263 384.818H129.013L131.165 389.079H131.255L133.408 384.818H136.157L132.433 391.599V395H129.987V391.599L126.263 384.818ZM138.99 395.144C138.187 395.144 137.498 394.98 136.921 394.652C136.348 394.321 135.905 393.86 135.594 393.27C135.286 392.677 135.132 391.989 135.132 391.207C135.132 390.421 135.286 389.733 135.594 389.143C135.905 388.55 136.348 388.089 136.921 387.761C137.498 387.43 138.187 387.264 138.99 387.264C139.792 387.264 140.479 387.43 141.053 387.761C141.629 388.089 142.072 388.55 142.38 389.143C142.692 389.733 142.847 390.421 142.847 391.207C142.847 391.989 142.692 392.677 142.38 393.27C142.072 393.86 141.629 394.321 141.053 394.652C140.479 394.98 139.792 395.144 138.99 395.144ZM139.004 393.31C139.296 393.31 139.543 393.22 139.745 393.041C139.947 392.862 140.102 392.614 140.208 392.295C140.317 391.977 140.372 391.609 140.372 391.192C140.372 390.768 140.317 390.396 140.208 390.078C140.102 389.76 139.947 389.511 139.745 389.332C139.543 389.153 139.296 389.064 139.004 389.064C138.703 389.064 138.448 389.153 138.239 389.332C138.033 389.511 137.876 389.76 137.767 390.078C137.66 390.396 137.607 390.768 137.607 391.192C137.607 391.609 137.66 391.977 137.767 392.295C137.876 392.614 138.033 392.862 138.239 393.041C138.448 393.22 138.703 393.31 139.004 393.31ZM149.02 391.704V387.364H151.446V395H149.129V393.578H149.05C148.881 394.045 148.592 394.417 148.184 394.692C147.78 394.964 147.291 395.099 146.718 395.099C146.198 395.099 145.74 394.98 145.346 394.741C144.951 394.503 144.645 394.17 144.426 393.742C144.207 393.311 144.096 392.808 144.093 392.231V387.364H146.524V391.754C146.527 392.168 146.637 392.494 146.852 392.733C147.068 392.972 147.361 393.091 147.732 393.091C147.974 393.091 148.191 393.038 148.383 392.932C148.579 392.822 148.733 392.665 148.846 392.46C148.962 392.251 149.02 391.999 149.02 391.704ZM152.993 395V387.364H155.355V388.756H155.434C155.574 388.252 155.801 387.877 156.115 387.632C156.43 387.384 156.797 387.259 157.214 387.259C157.327 387.259 157.443 387.268 157.562 387.284C157.681 387.297 157.792 387.319 157.895 387.349V389.462C157.779 389.422 157.627 389.39 157.438 389.367C157.252 389.344 157.087 389.332 156.941 389.332C156.652 389.332 156.392 389.397 156.16 389.526C155.931 389.652 155.751 389.83 155.618 390.058C155.489 390.284 155.424 390.549 155.424 390.854V395H152.993ZM167.397 387.871C167.364 387.506 167.217 387.223 166.955 387.021C166.696 386.815 166.327 386.712 165.846 386.712C165.528 386.712 165.263 386.754 165.051 386.837C164.838 386.92 164.679 387.034 164.573 387.18C164.467 387.322 164.413 387.486 164.409 387.672C164.403 387.824 164.432 387.959 164.499 388.075C164.568 388.191 164.668 388.293 164.797 388.383C164.93 388.469 165.089 388.545 165.274 388.612C165.46 388.678 165.669 388.736 165.901 388.786L166.776 388.984C167.28 389.094 167.724 389.24 168.108 389.422C168.496 389.604 168.821 389.821 169.083 390.073C169.348 390.325 169.548 390.615 169.684 390.943C169.82 391.271 169.89 391.639 169.893 392.047C169.89 392.69 169.727 393.242 169.406 393.702C169.084 394.163 168.622 394.516 168.019 394.761C167.419 395.007 166.695 395.129 165.846 395.129C164.994 395.129 164.252 395.002 163.619 394.746C162.986 394.491 162.494 394.103 162.142 393.583C161.791 393.063 161.61 392.405 161.6 391.609H163.957C163.977 391.938 164.065 392.211 164.22 392.43C164.376 392.648 164.59 392.814 164.862 392.927C165.137 393.04 165.455 393.096 165.816 393.096C166.148 393.096 166.429 393.051 166.661 392.962C166.897 392.872 167.077 392.748 167.203 392.589C167.329 392.43 167.394 392.247 167.397 392.042C167.394 391.85 167.334 391.686 167.218 391.55C167.102 391.411 166.923 391.291 166.681 391.192C166.443 391.089 166.138 390.995 165.767 390.908L164.703 390.66C163.821 390.458 163.127 390.131 162.619 389.68C162.112 389.226 161.86 388.613 161.864 387.841C161.86 387.211 162.03 386.659 162.371 386.185C162.712 385.711 163.185 385.342 163.788 385.077C164.391 384.812 165.079 384.679 165.851 384.679C166.64 384.679 167.324 384.813 167.904 385.082C168.488 385.347 168.94 385.72 169.262 386.2C169.583 386.681 169.747 387.238 169.754 387.871H167.397ZM174.705 395.144C173.907 395.144 173.217 394.987 172.637 394.672C172.061 394.354 171.616 393.901 171.305 393.315C170.997 392.725 170.843 392.024 170.843 391.212C170.843 390.423 170.998 389.733 171.31 389.143C171.621 388.55 172.061 388.089 172.627 387.761C173.194 387.43 173.862 387.264 174.631 387.264C175.174 387.264 175.672 387.349 176.122 387.518C176.573 387.687 176.963 387.937 177.291 388.268C177.619 388.6 177.874 389.009 178.056 389.496C178.239 389.98 178.33 390.536 178.33 391.162V391.768H171.693V390.357H176.068C176.064 390.098 176.003 389.868 175.884 389.665C175.764 389.463 175.6 389.306 175.392 389.193C175.186 389.077 174.949 389.019 174.681 389.019C174.409 389.019 174.165 389.08 173.95 389.203C173.734 389.322 173.564 389.487 173.438 389.695C173.312 389.901 173.245 390.134 173.239 390.396V391.833C173.239 392.145 173.3 392.418 173.423 392.653C173.545 392.885 173.719 393.066 173.945 393.195C174.17 393.325 174.439 393.389 174.75 393.389C174.966 393.389 175.161 393.359 175.337 393.3C175.512 393.24 175.663 393.152 175.789 393.036C175.915 392.92 176.01 392.778 176.073 392.609L178.305 392.673C178.212 393.174 178.008 393.61 177.693 393.981C177.382 394.349 176.972 394.635 176.465 394.841C175.958 395.043 175.372 395.144 174.705 395.144ZM179.571 395V387.364H181.933V388.756H182.012C182.152 388.252 182.379 387.877 182.694 387.632C183.008 387.384 183.375 387.259 183.792 387.259C183.905 387.259 184.021 387.268 184.14 387.284C184.26 387.297 184.371 387.319 184.473 387.349V389.462C184.357 389.422 184.205 389.39 184.016 389.367C183.83 389.344 183.665 389.332 183.519 389.332C183.23 389.332 182.97 389.397 182.738 389.526C182.51 389.652 182.329 389.83 182.196 390.058C182.067 390.284 182.002 390.549 182.002 390.854V395H179.571ZM193.104 387.364L190.484 395H187.7L185.085 387.364H187.645L189.052 392.624H189.132L190.544 387.364H193.104ZM194.036 395V387.364H196.467V395H194.036ZM195.254 386.474C194.913 386.474 194.62 386.361 194.374 386.136C194.129 385.907 194.006 385.632 194.006 385.31C194.006 384.992 194.129 384.72 194.374 384.495C194.62 384.266 194.913 384.152 195.254 384.152C195.599 384.152 195.892 384.266 196.134 384.495C196.379 384.72 196.502 384.992 196.502 385.31C196.502 385.632 196.379 385.907 196.134 386.136C195.892 386.361 195.599 386.474 195.254 386.474ZM201.579 395.144C200.774 395.144 200.083 394.978 199.506 394.647C198.933 394.316 198.492 393.855 198.184 393.265C197.876 392.672 197.721 391.986 197.721 391.207C197.721 390.424 197.876 389.738 198.184 389.148C198.495 388.555 198.938 388.093 199.511 387.761C200.088 387.43 200.776 387.264 201.574 387.264C202.28 387.264 202.895 387.392 203.419 387.647C203.946 387.902 204.357 388.263 204.652 388.731C204.95 389.195 205.108 389.74 205.124 390.366H202.852C202.806 389.975 202.673 389.669 202.454 389.447C202.239 389.225 201.957 389.114 201.609 389.114C201.327 389.114 201.081 389.193 200.868 389.352C200.656 389.508 200.491 389.74 200.371 390.048C200.255 390.353 200.197 390.731 200.197 391.182C200.197 391.633 200.255 392.014 200.371 392.325C200.491 392.634 200.656 392.867 200.868 393.026C201.081 393.182 201.327 393.26 201.609 393.26C201.835 393.26 202.033 393.212 202.206 393.116C202.381 393.02 202.526 392.879 202.638 392.693C202.751 392.504 202.822 392.276 202.852 392.007H205.124C205.101 392.637 204.943 393.187 204.652 393.658C204.363 394.128 203.957 394.495 203.434 394.756C202.913 395.015 202.295 395.144 201.579 395.144ZM209.938 395.144C209.139 395.144 208.45 394.987 207.87 394.672C207.293 394.354 206.849 393.901 206.537 393.315C206.229 392.725 206.075 392.024 206.075 391.212C206.075 390.423 206.231 389.733 206.542 389.143C206.854 388.55 207.293 388.089 207.86 387.761C208.426 387.43 209.094 387.264 209.863 387.264C210.407 387.264 210.904 387.349 211.355 387.518C211.806 387.687 212.195 387.937 212.523 388.268C212.851 388.6 213.106 389.009 213.289 389.496C213.471 389.98 213.562 390.536 213.562 391.162V391.768H206.925V390.357H211.3C211.297 390.098 211.235 389.868 211.116 389.665C210.997 389.463 210.833 389.306 210.624 389.193C210.418 389.077 210.181 389.019 209.913 389.019C209.641 389.019 209.398 389.08 209.182 389.203C208.967 389.322 208.796 389.487 208.67 389.695C208.544 389.901 208.478 390.134 208.471 390.396V391.833C208.471 392.145 208.533 392.418 208.655 392.653C208.778 392.885 208.952 393.066 209.177 393.195C209.403 393.325 209.671 393.389 209.983 393.389C210.198 393.389 210.394 393.359 210.569 393.3C210.745 393.24 210.896 393.152 211.022 393.036C211.148 392.92 211.242 392.778 211.305 392.609L213.537 392.673C213.444 393.174 213.241 393.61 212.926 393.981C212.614 394.349 212.205 394.635 211.698 394.841C211.191 395.043 210.604 395.144 209.938 395.144ZM217.285 393.608L217.24 394.16C217.2 394.617 217.119 395.063 216.996 395.497C216.877 395.935 216.749 396.327 216.613 396.675C216.478 397.023 216.37 397.294 216.29 397.486H214.759C214.812 397.294 214.883 397.023 214.973 396.675C215.066 396.327 215.152 395.935 215.231 395.497C215.311 395.06 215.356 394.616 215.366 394.165L215.376 393.608H217.285ZM223.978 384.818V395H221.517V384.818H223.978ZM227.954 390.645V395H225.523V387.364H227.834V388.766H227.919C228.088 388.298 228.376 387.932 228.784 387.667C229.192 387.398 229.677 387.264 230.241 387.264C230.778 387.264 231.243 387.385 231.638 387.627C232.035 387.866 232.344 388.201 232.562 388.631C232.784 389.059 232.894 389.559 232.89 390.133V395H230.459V390.61C230.463 390.186 230.355 389.854 230.136 389.616C229.921 389.377 229.621 389.258 229.236 389.258C228.981 389.258 228.756 389.314 228.56 389.427C228.368 389.536 228.219 389.694 228.113 389.899C228.01 390.105 227.957 390.353 227.954 390.645ZM241.062 389.695L238.83 389.755C238.807 389.596 238.744 389.455 238.641 389.332C238.539 389.206 238.404 389.109 238.239 389.039C238.076 388.966 237.887 388.93 237.672 388.93C237.39 388.93 237.15 388.986 236.951 389.099C236.755 389.211 236.659 389.364 236.663 389.556C236.659 389.705 236.719 389.835 236.842 389.944C236.968 390.053 237.191 390.141 237.513 390.207L238.984 390.486C239.747 390.632 240.313 390.874 240.685 391.212C241.059 391.55 241.248 391.997 241.251 392.554C241.248 393.078 241.092 393.533 240.784 393.921C240.479 394.309 240.062 394.611 239.531 394.826C239.001 395.038 238.394 395.144 237.712 395.144C236.621 395.144 235.761 394.92 235.131 394.473C234.505 394.022 234.147 393.419 234.058 392.663L236.459 392.604C236.512 392.882 236.649 393.094 236.871 393.24C237.094 393.386 237.377 393.459 237.722 393.459C238.033 393.459 238.287 393.401 238.482 393.285C238.678 393.169 238.777 393.015 238.781 392.822C238.777 392.65 238.701 392.513 238.552 392.41C238.403 392.304 238.169 392.221 237.851 392.161L236.518 391.908C235.753 391.768 235.183 391.512 234.808 391.137C234.434 390.759 234.248 390.279 234.251 389.695C234.248 389.185 234.384 388.749 234.659 388.388C234.934 388.023 235.325 387.745 235.832 387.553C236.339 387.36 236.938 387.264 237.627 387.264C238.661 387.264 239.477 387.481 240.073 387.915C240.67 388.346 241 388.94 241.062 389.695ZM246.759 387.364V389.153H241.941V387.364H246.759ZM242.95 385.534H245.382V392.599C245.382 392.748 245.405 392.869 245.451 392.962C245.501 393.051 245.572 393.116 245.665 393.156C245.758 393.192 245.869 393.21 245.998 393.21C246.091 393.21 246.189 393.202 246.291 393.185C246.397 393.165 246.477 393.149 246.53 393.136L246.898 394.891C246.782 394.924 246.618 394.965 246.406 395.015C246.197 395.065 245.947 395.096 245.655 395.109C245.085 395.136 244.596 395.07 244.188 394.911C243.784 394.748 243.474 394.496 243.259 394.155C243.047 393.813 242.944 393.384 242.95 392.867V385.534ZM250.152 395.129C249.665 395.129 249.232 395.048 248.854 394.886C248.48 394.72 248.183 394.471 247.964 394.14C247.749 393.805 247.641 393.386 247.641 392.882C247.641 392.458 247.716 392.1 247.865 391.808C248.014 391.517 248.22 391.28 248.481 391.097C248.743 390.915 249.045 390.777 249.386 390.685C249.728 390.589 250.092 390.524 250.48 390.491C250.914 390.451 251.264 390.41 251.529 390.366C251.794 390.32 251.986 390.255 252.106 390.173C252.228 390.086 252.29 389.965 252.29 389.81V389.785C252.29 389.53 252.202 389.332 252.026 389.193C251.85 389.054 251.613 388.984 251.315 388.984C250.994 388.984 250.735 389.054 250.54 389.193C250.344 389.332 250.22 389.525 250.167 389.77L247.925 389.69C247.991 389.226 248.162 388.812 248.437 388.447C248.715 388.08 249.096 387.791 249.58 387.582C250.067 387.37 250.652 387.264 251.335 387.264C251.822 387.264 252.271 387.322 252.682 387.438C253.093 387.551 253.451 387.717 253.756 387.935C254.061 388.151 254.296 388.416 254.462 388.731C254.631 389.046 254.716 389.405 254.716 389.81V395H252.429V393.936H252.369C252.233 394.195 252.059 394.413 251.847 394.592C251.638 394.771 251.391 394.906 251.106 394.995C250.825 395.085 250.506 395.129 250.152 395.129ZM250.903 393.538C251.164 393.538 251.4 393.485 251.608 393.379C251.821 393.273 251.99 393.127 252.116 392.942C252.242 392.753 252.305 392.534 252.305 392.286V391.56C252.235 391.596 252.15 391.629 252.051 391.659C251.955 391.689 251.849 391.717 251.733 391.744C251.617 391.77 251.497 391.793 251.375 391.813C251.252 391.833 251.135 391.851 251.022 391.868C250.793 391.904 250.598 391.961 250.435 392.037C250.276 392.113 250.153 392.213 250.067 392.335C249.984 392.455 249.943 392.597 249.943 392.763C249.943 393.015 250.032 393.207 250.211 393.339C250.394 393.472 250.624 393.538 250.903 393.538ZM258.633 390.645V395H256.202V387.364H258.514V388.766H258.599C258.768 388.298 259.056 387.932 259.464 387.667C259.871 387.398 260.357 387.264 260.92 387.264C261.457 387.264 261.923 387.385 262.317 387.627C262.715 387.866 263.023 388.201 263.242 388.631C263.464 389.059 263.573 389.559 263.57 390.133V395H261.139V390.61C261.142 390.186 261.035 389.854 260.816 389.616C260.6 389.377 260.3 389.258 259.916 389.258C259.661 389.258 259.435 389.314 259.24 389.427C259.048 389.536 258.898 389.694 258.792 389.899C258.69 390.105 258.637 390.353 258.633 390.645ZM269.386 387.364V389.153H264.568V387.364H269.386ZM265.577 385.534H268.009V392.599C268.009 392.748 268.032 392.869 268.078 392.962C268.128 393.051 268.199 393.116 268.292 393.156C268.385 393.192 268.496 393.21 268.625 393.21C268.718 393.21 268.816 393.202 268.918 393.185C269.024 393.165 269.104 393.149 269.157 393.136L269.525 394.891C269.409 394.924 269.245 394.965 269.033 395.015C268.824 395.065 268.574 395.096 268.282 395.109C267.712 395.136 267.223 395.07 266.815 394.911C266.411 394.748 266.101 394.496 265.886 394.155C265.674 393.813 265.571 393.384 265.577 392.867V385.534ZM273.221 384.818V395H270.79V384.818H273.221ZM276.255 397.864C275.963 397.864 275.688 397.84 275.43 397.794C275.171 397.751 274.949 397.693 274.764 397.62L275.301 395.855C275.539 395.935 275.755 395.981 275.947 395.994C276.142 396.008 276.31 395.976 276.449 395.9C276.592 395.827 276.701 395.696 276.777 395.507L276.872 395.278L274.157 387.364H276.703L278.11 392.812H278.189L279.616 387.364H282.176L279.298 395.731C279.159 396.148 278.961 396.516 278.706 396.835C278.454 397.156 278.128 397.408 277.727 397.59C277.329 397.772 276.838 397.864 276.255 397.864Z" fill="#00A8A8"/>
<defs>
<filter id="filter0_d_1_2" x="177.927" y="353.88" width="110.77" height="28.9432" filterUnits="userSpaceOnUse" color-interpolation-filters="sRGB">
<feFlood flood-opacity="0" result="BackgroundImageFix"/>
<feColorMatrix in="SourceAlpha" type="matrix" values="0 0 0 0 0 0 0 0 0 0 0 0 0 0 0 0 0 0 127 0" result="hardAlpha"/>
<feOffset dx="0.5" dy="1"/>
<feGaussianBlur stdDeviation="0.25"/>
<feComposite in2="hardAlpha" operator="out"/>
<feColorMatrix type="matrix" values="0 0 0 0 0 0 0 0 0 0 0 0 0 0 0 0 0 0 0.25 0"/>
<feBlend mode="normal" in2="BackgroundImageFix" result="effect1_dropShadow_1_2"/>
<feBlend mode="normal" in="SourceGraphic" in2="effect1_dropShadow_1_2" result="shape"/>
</filter>
</defs>
</svg>
